PathFileType	4	(X/Y/Z)	Patient4_TMGait_0pt2_01_right_17.trc.trc
DataRate	CameraRate	NumFrames	NumMarkers	Units	OrigDataRate	OrigDataStartFrame	OrigNumFrames
42.424242424242	42.424242424242	4	33	mm	42.424242424242	106	       141
Frame#	Time	Sacral			L.Shoulder			Chest			R.Shoulder			Neck			R.ASIS			L.ASIS			R.Thigh.Superior			R.Thigh.Lateral			R.Thigh.Inferior			R.Patella			L.Thigh.Superior			L.Thigh.Lateral			L.Thigh.Inferior			L.Patella			L.Shank.Superior			L.Shank.Lateral			L.Shank.Inferior			R.Shank.Superior			R.Shank.Lateral			R.Shank.Inferior			R.Heel			R.Midfoot.Superior			R.Midfoot.Lateral			R.Toe			L.Heel			L.Midfoot.Lateral			L.Midfoot.Superior			L.Toe			L.Elbow			L.Wrist			R.Elbow			R.Wrist			
		X1	Y1	Z1	X2	Y2	Z2	X3	Y3	Z3	X4	Y4	Z4	X5	Y5	Z5	X6	Y6	Z6	X7	Y7	Z7	X8	Y8	Z8	X9	Y9	Z9	X10	Y10	Z10	X11	Y11	Z11	X12	Y12	Z12	X13	Y13	Z13	X14	Y14	Z14	X15	Y15	Z15	X16	Y16	Z16	X17	Y17	Z17	X18	Y18	Z18	X19	Y19	Z19	X20	Y20	Z20	X21	Y21	Z21	X22	Y22	Z22	X23	Y23	Z23	X24	Y24	Z24	X25	Y25	Z25	X26	Y26	Z26	X27	Y27	Z27	X28	Y28	Z28	X29	Y29	Z29	X30	Y30	Z30	X31	Y31	Z31	X32	Y32	Z32	X33	Y33	Z33	

106	40.305000000000	706.462692325072	994.632506302532	409.139434416103	905.860492657211	1421.401735580767	244.114621877285	995.185835679719	1347.842109139685	410.614125907960	902.954468928337	1418.311652897034	580.659881821924	874.746396207624	1482.357044348888	401.392123782976	928.341554420808	928.099190753009	540.067041824492	933.895212639868	948.815395131623	265.839605483018	982.782799016165	733.356827115417	521.747092298043	912.836949175821	624.154646763121	592.991071978283	997.391484313619	566.415850358850	520.991677400997	993.596651957688	456.838851132546	547.513709583961	991.378106624022	745.237353465916	313.351482605465	921.473053644393	614.887984499446	255.279106549788	1007.290145132421	549.873506466747	331.284675296343	1012.010504079309	474.639183720513	342.160819330136	972.444815180634	400.630731837310	336.456583812585	872.267272571252	297.377184738423	282.584232196537	897.654921229159	183.947851681647	359.848324842892	911.979122840384	392.168529478008	557.349839690172	788.709392398025	364.070851397511	620.677556946026	766.820653741039	253.263766521531	576.390413912367	560.080097459461	204.447284367386	553.175709784339	723.934339234364	134.869004216709	596.876626670382	614.865937527862	143.018565495082	627.674176153301	781.291937603368	31.321284545833	624.495085159435	748.275376093532	39.365898032828	393.231721885417	826.831141800389	36.329134148097	317.175483505472	909.791981951208	95.649532261481	349.733554445308	1038.756006127500	40.088669781460	327.052342372186	926.137025095582	1078.731086790116	102.633183338819	1025.750382093738	836.881633682650	108.097317323947	911.913780077305	1063.259392975962	688.911786728816	1046.600059904988	843.881127071159	718.024171250249	
107	40.328571428571	705.042854267934	992.837586360205	404.726913541988	907.186914381782	1420.373148760973	242.922949400473	993.901983665686	1346.458010271743	410.579777565382	898.885449568443	1416.317342799031	579.493181950987	874.204705026823	1481.120698563364	400.110393267229	925.853451282598	927.366400295275	538.255126440123	934.766194913570	947.906300274891	263.800323210702	987.341448177330	736.791193420869	518.850241653608	922.298059767507	625.173996872159	590.276460672306	1009.053832018202	570.300069329273	518.067601076684	1008.336258801486	459.448376841174	545.089404580588	991.686740052176	743.904793231466	312.066684003686	921.811766121026	613.463137645045	254.262463528808	1006.652665284982	548.491942848669	331.477015547273	1011.107906016478	473.275024690572	342.758656052366	970.825730753914	399.230955972829	336.714125512584	870.120324763511	296.680009263272	282.359076303945	893.945478064053	183.178943895448	359.960814734397	925.601801762535	394.334346931706	554.708306088268	800.698118005818	368.556778766043	616.655456947911	777.460838310363	257.701091858415	573.085870072319	570.092838748135	213.604173430890	547.403350300535	732.223088754459	139.768584653394	594.148078549664	622.412377089762	151.258914566872	623.386332842325	786.281139788675	31.657191002413	623.988683901786	743.524323244900	39.296019378114	393.124395190189	822.112876956689	36.257730111165	317.050865402755	905.044040737965	95.523005592592	349.778393359648	1034.047838452879	40.055164628711	327.036281363515	939.553324311534	1079.620644237023	99.519524780781	1055.705307555393	845.300178896235	107.034713443074	889.641511842927	1059.994381467499	683.960029100006	1004.048470185304	828.606584559251	710.591214697059	
108	40.352142857143	703.744058156226	991.604019605117	400.675270524042	908.637544448003	1419.810802400657	242.082334103208	992.559484583732	1345.661106485957	410.984770500592	894.564116756145	1415.047851795613	578.540785347643	873.599143379088	1480.397575063184	399.070984180161	923.301260465982	927.174689339980	536.983229362190	935.644579075668	947.382149804459	262.377834398969	991.133837803570	740.771560691389	516.404830406346	930.679071931061	626.955292060807	587.926665918171	1019.345752708966	574.880581607592	515.480621240597	1021.776990376127	463.101521361395	542.841326088453	991.724586482688	742.733973266469	311.193658686095	921.591102378206	612.405345968265	253.502054255037	1005.315172969317	547.295983722246	331.842151955482	1009.408506837792	472.180529556368	343.477616742376	968.554867673457	398.163068585938	337.039832875541	867.505222387291	296.160638483855	282.192239799537	890.035573266901	182.599024965224	360.063965397157	938.582237384554	397.125329415100	552.265328783905	812.502335394752	372.266324942777	612.826108363871	789.180130990489	261.235997513744	569.838648954718	581.845842598334	218.823546547565	541.734221080629	743.127930051504	143.741704014174	591.306141073578	632.726004646914	156.635646540903	619.135503893053	795.716582765110	32.454734419140	623.307256345788	738.767303586291	39.264580823739	393.011695276551	817.399201585496	36.204125855767	316.939840895357	900.310547486351	95.420727051952	349.799986003115	1029.338679092438	40.012562247509	327.019500554726	952.799508003863	1081.528985954071	96.796868985656	1085.678374318000	856.252198672360	106.817643766976	867.086073942735	1058.658099666227	679.273004397325	961.436059780153	817.510072770649	702.515914720512	
109	40.375714285714	702.584300303182	991.047461596819	396.966671730330	910.274088474576	1419.795556607515	241.586477839473	991.206538090693	1345.531742283233	411.819748113174	890.059976175414	1414.608475779323	577.776463047377	872.961561828531	1480.262378849473	398.257377009061	920.680652747783	927.594290320315	536.239422750029	936.479695186325	947.280237514608	261.598271838807	993.989368795053	745.162405338421	514.467942798156	937.658531620990	629.430354051393	586.012700788664	1027.886516184844	579.962242423111	513.308596368172	1033.489922837673	467.684589408060	540.887232263519	991.401961126184	741.755672551297	310.735588117363	920.708348236933	611.774414682488	252.968635044463	1003.157428308800	546.323830170034	332.326506483147	1006.769358405481	471.395132905788	344.244759505634	965.516312267366	397.476010745595	337.372723098835	864.323948353293	295.838760406515	282.050569724993	885.879841432723	182.234369596663	360.135214442020	950.620471744401	400.424467954184	550.169853518971	823.995043864519	374.876813104202	609.488710804011	802.009256918813	263.552847462966	566.936735344544	595.502378575698	219.424187410065	536.716943374903	756.917814368430	146.382400645885	588.627202872304	646.144948450015	158.500681079461	615.338399160370	810.126183314984	33.664772332688	622.520242544606	734.000515636897	39.267298921366	392.895654364977	812.684706073590	36.166601692108	316.842051480822	895.585661434681	95.346333312171	349.791009824453	1024.624181328705	39.964771041049	327.001528210273	965.833064218625	1084.474533199053	94.514847453552	1115.263876339826	869.770458439305	107.457359929506	844.554553711436	1059.342271388419	674.877709267525	919.589761230701	810.607779952636	694.094763071820	
